<?xml version="1.0" encoding="iso-8859-1"?>
<!-- Generator: Adobe Illustrator 19.0.0, SVG Export Plug-In . SVG Version: 6.00 Build 0)  -->
<svg version="1.1" id="Capa_1" xmlns="http://www.w3.org/2000/svg" xmlns:xlink="http://www.w3.org/1999/xlink" x="0px" y="0px"
	 viewBox="0 0 60 60" style="enable-background: new 0 0 60 60" xml:space="preserve">
<g fill="rgb(75, 71, 71)">
	<path style="fill: RGB(54,54,54)" d="M 57 0 H 3 C 1.3 0 0 1.3 0 3 v 56 c 0 0.6 0.4 1 1 1 h 58 c 0.6 0 1 -0.4 1 -1 V 3 C 60 1.3 58.7 0 57 0 z M 3 2 h 54 c 0.6 0 1 0.4 1 1 v 5 H 2 V 3 C 2 2.4 2.4 2 3 2 z M 19 53 v 5 h -8 v -5 H 19 z M 21 53 h 8 v 5 h -8 V 53 z M 31 53 h 8 v 5 h -8 V 53 z M 41 53 h 8 v 5 h -8 V 53 z M 2 51 V 17 h 56 v 34 H 2 z M 2 15 v -5 h 56 v 5 H 2 z M 2 53 h 7 v 5 H 2 V 53 z M 51 58 v -5 h 7 v 5 H 51 z"/>
	<rect x="5" y="4" style="fill: RGB(54,54,54)" width="4" height="2"/>
	<rect x="12" y="4" style="fill: RGB(54,54,54)" width="4" height="2"/>
	<path style="fill: RGB(54,54,54)" d="M 16 24 h -2 v 13 H 8 V 24 H 6 v 14 c 0 0.6 0.4 1 1 1 h 7 v 6 h 2 v -6 h 3 v -2 h -3 V 24 z"/>
	<path style="fill: RGB(54,54,54)" d="M 54 37 h -3 V 24 h -2 v 13 h -6 V 24 h -2 v 14 c 0 0.6 0.4 1 1 1 h 7 v 6 h 2 v -6 h 3 V 37 z"/>
	<path style="fill: RGB(54,54,54)" d="M 30 24 c -3.9 0 -7 3.1 -7 7 v 7 c 0 3.9 3.1 7 7 7 s 7 -3.1 7 -7 v -7 C 37 27.1 33.9 24 30 24 z M 35 38 c 0 2.8 -2.2 5 -5 5 s -5 -2.2 -5 -5 v -7 c 0 -2.8 2.2 -5 5 -5 s 5 2.2 5 5 V 38 z"/>
</g>
<g>
</g>
<g>
</g>
<g>
</g>
<g>
</g>
<g>
</g>
<g>
</g>
<g>
</g>
<g>
</g>
<g>
</g>
<g>
</g>
<g>
</g>
<g>
</g>
<g>
</g>
<g>
</g>
<g>
</g>
</svg>
