<?xml version="1.0" encoding="iso-8859-1"?>
<!-- Generator: Adobe Illustrator 19.0.0, SVG Export Plug-In . SVG Version: 6.00 Build 0)  -->
<svg version="1.1" id="Layer_1" xmlns="http://www.w3.org/2000/svg" xmlns:xlink="http://www.w3.org/1999/xlink" x="0px" y="0px"
	 viewBox="0 0 494.46 494.46" style="enable-background: new 0 0 494.46 494.46" xml:space="preserve">
<g stroke="rgb(34, 197, 255)" fill="rgb(19, 147, 193)">
	
		<rect x="227.9" y="122" transform="matrix(0.7,0.7,-0.7,0.7,247.2,-102.4)" style="fill: #005ece" width="40" height="254.7"/>
	<path style="fill: #005ece" d="M 454.6 40.8 L 426.4 69.1 c 17.5 17.5 27.1 40.7 27.1 65.4 c 0 24.7 -9.6 47.9 -27.1 65.4 L 325.8 300.5 l 28.3 28.3 l 100.6 -100.6 c 25 -25 38.8 -58.3 38.8 -93.7 C 493.5 99.1 479.7 65.8 454.6 40.8 z"/>
	<path style="fill: #2488ff" d="M 361 2 c -35.4 0 -68.7 13.8 -93.7 38.8 L 166.7 141.4 l 28.3 28.3 L 295.6 69.1 C 313 51.6 336.3 42 361 42 s 47.9 9.6 65.4 27.1 c 0 0 28.3 -28.3 28.3 -28.3 C 429.6 15.8 396.4 2 361 2 z"/>
	<path style="fill: #005ece" d="M 196.9 429.4 c -17.5 17.5 -40.7 27.1 -65.4 27.1 c -24.7 0 -47.9 -9.6 -65.4 -27.1 l -28.3 28.3 c 25 25 58.3 38.8 93.7 38.8 c 35.4 0 68.7 -13.8 93.7 -38.8 l 100.6 -100.6 l -28.3 -28.3 L 196.9 429.4 z"/>
	<path style="fill: #2488ff" d="M 66.1 429.4 C 48.6 411.9 39 388.7 39 364 s 9.6 -47.9 27.1 -65.4 l 100.6 -100.6 l -28.3 -28.3 L 37.8 270.3 C 12.8 295.3 -1 328.6 -1 364 s 13.8 68.7 38.8 93.7 C 37.8 457.6 66.1 429.4 66.1 429.4 z"/>
</g>
<g>
</g>
<g>
</g>
<g>
</g>
<g>
</g>
<g>
</g>
<g>
</g>
<g>
</g>
<g>
</g>
<g>
</g>
<g>
</g>
<g>
</g>
<g>
</g>
<g>
</g>
<g>
</g>
<g>
</g>
</svg>
