<?xml version="1.0" ?><svg width="60px" height="60px" viewBox="0 0 60 60" xmlns="http://www.w3.org/2000/svg"><defs><style>.cls-1{fill:none;}.cls-2{fill:#3d3d63;}</style></defs><title/><g stroke="rgb(56, 56, 56)" fill="none" data-name="Layer 2" id="Layer_2"><g id="Icons"><g id="Development"><rect class="cls-1" height="60" width="60"/><circle class="cls-2" cx="9.3" cy="15.7" r="1"/><circle class="cls-2" cx="16" cy="15.7" r="1"/><circle class="cls-2" cx="12.7" cy="15.7" r="1"/><path class="cls-2" d="M 20 30.3 l 3 -3 a 1 1 0 1 0 -1.4 -1.4 l -3.7 3.7 a 1 1 0 0 0 0 1.4 l 3.7 3.7 a 1 1 0 0 0 1.4 0 a 1 1 0 0 0 0 -1.4 Z"/><path class="cls-2" d="M 34.3 34.7 a 1 1 0 0 0 1.4 0 L 39.5 31 a 1 1 0 0 0 0 -1.4 l -3.7 -3.7 a 1 1 0 0 0 -1.4 1.4 l 3 3 l -3 3 A 1 1 0 0 0 34.3 34.7 Z"/><path class="cls-2" d="M 31 26.1 a 1 1 0 0 0 -1.4 0.4 L 25.9 33 a 1 1 0 1 0 1.7 1 l 3.7 -6.5 A 1 1 0 0 0 31 26.1 Z"/><path class="cls-2" d="M 55.9 40 a 0.3 0.3 0 0 1 -0.3 -0.2 a 10.4 10.4 0 0 0 -1.7 -2.9 a 0.3 0.3 0 0 1 0 -0.3 a 2.3 2.3 0 0 0 -0.8 -3.1 L 52.3 33 V 14.7 a 3 3 0 0 0 -3 -3 H 8 a 3 3 0 0 0 -3 3 V 40.1 a 2.3 2.3 0 0 0 2.3 2.3 H 21 l -1 3.7 H 18.7 a 4.3 4.3 0 0 0 -4.2 3.3 H 12 a 1 1 0 0 0 0 2 H 37.5 a 2.1 2.1 0 0 0 0.1 0.7 a 2.3 2.3 0 0 0 1.1 1.4 l 2.1 1.2 a 2.3 2.3 0 0 0 3.1 -0.8 a 0.3 0.3 0 0 1 0.3 -0.1 a 9.7 9.7 0 0 0 3.3 0 a 0.3 0.3 0 0 1 0.3 0.1 a 2.3 2.3 0 0 0 2 1.1 a 2.3 2.3 0 0 0 1.1 -0.3 l 2.1 -1.2 a 2.3 2.3 0 0 0 1.1 -1.4 a 2.3 2.3 0 0 0 -0.2 -1.7 a 0.3 0.3 0 0 1 0 -0.3 a 10.5 10.5 0 0 0 1.7 -2.9 a 0.3 0.3 0 0 1 0.3 -0.2 a 2.3 2.3 0 0 0 2.3 -2.3 V 42.3 A 2.3 2.3 0 0 0 55.9 40 Z M 7 14.7 a 1 1 0 0 1 1 -1 H 49.3 a 1 1 0 0 1 1 1 v 3 H 7 Z m 0.3 25.7 A 0.3 0.3 0 0 1 7 40.1 V 19.7 H 50.3 V 32 A 2.3 2.3 0 0 0 47.8 33 h 0 a 0.3 0.3 0 0 1 -0.3 0.1 a 10.3 10.3 0 0 0 -3.3 0 a 0.3 0.3 0 0 1 -0.3 -0.1 h 0 a 2.3 2.3 0 0 0 -3.1 -0.8 l -2.1 1.2 a 2.2 2.2 0 0 0 -1.1 1.4 a 2.3 2.3 0 0 0 0.2 1.8 a 0.3 0.3 0 0 1 0 0.3 a 10.4 10.4 0 0 0 -1.7 2.9 a 0.3 0.3 0 0 1 -0.3 0.2 a 2.3 2.3 0 0 0 -1.4 0.5 Z M 34 46.1 H 22 l 1 -3.7 H 33.5 V 44.7 A 2.3 2.3 0 0 0 34 46.1 Z m -15.3 2 H 36.5 a 11 11 0 0 0 0.8 1.3 H 16.6 A 2.3 2.3 0 0 1 18.7 48.1 Z M 56.2 44.7 a 0.3 0.3 0 0 1 -0.3 0.3 a 2.3 2.3 0 0 0 -2.1 1.5 a 8.5 8.5 0 0 1 -1.3 2.3 a 2.3 2.3 0 0 0 -0.2 2.6 a 0.3 0.3 0 0 1 0 0.2 a 0.3 0.3 0 0 1 -0.1 0.2 L 49.9 53 a 0.3 0.3 0 0 1 -0.4 -0.1 a 2.3 2.3 0 0 0 -2.4 -1.1 a 7.9 7.9 0 0 1 -2.7 0 a 2.3 2.3 0 0 0 -2.4 1.1 a 0.3 0.3 0 0 1 -0.4 0.1 l -2.1 -1.2 a 0.3 0.3 0 0 1 -0.1 -0.2 a 0.3 0.3 0 0 1 0 -0.2 a 2.3 2.3 0 0 0 -0.2 -2.6 a 8.3 8.3 0 0 1 -1.4 -2.3 A 2.3 2.3 0 0 0 35.8 45 a 0.3 0.3 0 0 1 -0.3 -0.3 V 42.3 a 0.3 0.3 0 0 1 0.3 -0.3 a 2.3 2.3 0 0 0 2.1 -1.5 a 8.2 8.2 0 0 1 1.4 -2.3 a 2.3 2.3 0 0 0 0.2 -2.6 a 0.3 0.3 0 0 1 0 -0.2 a 0.3 0.3 0 0 1 0.1 -0.2 l 2.1 -1.2 a 0.3 0.3 0 0 1 0.1 0 a 0.3 0.3 0 0 1 0.3 0.1 h 0 a 2.3 2.3 0 0 0 2.4 1.1 a 7.9 7.9 0 0 1 2.7 0 A 2.3 2.3 0 0 0 49.5 34 h 0 a 0.3 0.3 0 0 1 0.4 -0.1 l 2.1 1.2 a 0.3 0.3 0 0 1 0.1 0.2 a 0.3 0.3 0 0 1 0 0.2 a 2.3 2.3 0 0 0 0.2 2.6 a 8.5 8.5 0 0 1 1.3 2.3 A 2.3 2.3 0 0 0 55.9 42 a 0.3 0.3 0 0 1 0.3 0.3 Z"/><path class="cls-2" d="M 45.8 38.9 a 4.5 4.5 0 1 0 4.5 4.5 A 4.5 4.5 0 0 0 45.8 38.9 Z m 0 7.1 a 2.5 2.5 0 1 1 2.5 -2.5 A 2.5 2.5 0 0 1 45.8 46 Z"/></g></g></g></svg>