<?xml version="1.0" encoding="iso-8859-1"?>
<!-- Generator: Adobe Illustrator 16.0.0, SVG Export Plug-In . SVG Version: 6.00 Build 0)  -->
<!DOCTYPE svg PUBLIC "-//W3C//DTD SVG 1.1//EN" "http://www.w3.org/Graphics/SVG/1.1/DTD/svg11.dtd">
<svg version="1.1" id="Capa_1" xmlns="http://www.w3.org/2000/svg" xmlns:xlink="http://www.w3.org/1999/xlink" x="0px" y="0px"
	 width="31.9px" height="31.9px" viewBox="0 0 31.894 31.894" style="enable-background: new 0 0 31.894 31.894"
	 xml:space="preserve">
<g stroke="rgb(56, 56, 56)" fill="rgb(56, 56, 56)">
	<g>
		<path d="M 25.9 1.9 H 12.9 c -3.3 0 -5.9 2.7 -5.9 6 v 0.1 l 2.4 0 V 7.9 c 0 -1.9 1.6 -3.6 3.5 -3.6 h 13 c 1.9 0 3.4 1.6 3.4 3.6 v 7 c 0 1.9 -1.4 3.4 -3.3 3.5 l 0 2.4 c 3.2 -0.1 5.8 -2.7 5.8 -5.9 v -7 C 31.9 4.6 29.2 1.9 25.9 1.9 z"/>
		<path d="M 20.2 10 L 4.4 9.8 c -2.3 0 -4.3 1.8 -4.3 4.2 L 0 22.5 c 0 2.3 1.8 4.3 4.2 4.3 l 10.6 0.1 l 5.7 2.9 c 0.4 0.2 0.8 0.1 1.1 -0.1 c 0.3 -0.2 0.5 -0.7 0.4 -1.1 l -0.3 -1.7 l 0 0 c 1.4 0 2.5 -1.1 2.5 -2.5 l 0.1 -10.2 C 24.4 11.9 22.5 10 20.2 10 z M 18.2 22 H 6.1 c -0.7 0 -1.2 -0.5 -1.2 -1.2 c 0 -0.7 0.5 -1.2 1.2 -1.2 h 12.1 c 0.7 0 1.2 0.5 1.2 1.2 C 19.4 21.5 18.9 22 18.2 22 z M 18.2 17.2 H 6.1 c -0.7 0 -1.2 -0.5 -1.2 -1.2 c 0 -0.7 0.5 -1.2 1.2 -1.2 h 12.1 c 0.7 0 1.2 0.5 1.2 1.2 C 19.4 16.7 18.9 17.2 18.2 17.2 z"/>
	</g>
</g>
<g>
</g>
<g>
</g>
<g>
</g>
<g>
</g>
<g>
</g>
<g>
</g>
<g>
</g>
<g>
</g>
<g>
</g>
<g>
</g>
<g>
</g>
<g>
</g>
<g>
</g>
<g>
</g>
<g>
</g>
</svg>
